<mxfile host="app.diagrams.net" modified="2023-05-22T13:14:45.827Z" agent="Mozilla/5.0 (Windows NT 10.0; Win64; x64) AppleWebKit/537.36 (KHTML, like Gecko) Chrome/103.0.0.0 Safari/537.36" etag="1Dy8_LNRs6E5fHyNcF0a" version="21.3.2" type="device">
  <diagram name="Page-1" id="elGnKwkHQ1McNvmlJ3EO">
    <mxGraphModel dx="1674" dy="756" grid="1" gridSize="10" guides="1" tooltips="1" connect="1" arrows="1" fold="1" page="1" pageScale="1" pageWidth="850" pageHeight="1100" math="0" shadow="0">
      <root>
        <mxCell id="0" />
        <mxCell id="1" parent="0" />
        <mxCell id="GBdLteWlDEAw-C-Zja_c-25" style="edgeStyle=orthogonalEdgeStyle;rounded=0;orthogonalLoop=1;jettySize=auto;html=1;" edge="1" parent="1" source="GBdLteWlDEAw-C-Zja_c-1" target="GBdLteWlDEAw-C-Zja_c-2">
          <mxGeometry relative="1" as="geometry" />
        </mxCell>
        <mxCell id="GBdLteWlDEAw-C-Zja_c-1" value="Management root account" style="sketch=0;outlineConnect=0;fontColor=#232F3E;gradientColor=none;fillColor=#B0084D;strokeColor=none;dashed=0;verticalLabelPosition=bottom;verticalAlign=top;align=center;html=1;fontSize=12;fontStyle=0;aspect=fixed;pointerEvents=1;shape=mxgraph.aws4.organizations_management_account;" vertex="1" parent="1">
          <mxGeometry x="370" y="40" width="74" height="78" as="geometry" />
        </mxCell>
        <mxCell id="GBdLteWlDEAw-C-Zja_c-14" style="edgeStyle=orthogonalEdgeStyle;rounded=0;orthogonalLoop=1;jettySize=auto;html=1;" edge="1" parent="1" source="GBdLteWlDEAw-C-Zja_c-2" target="GBdLteWlDEAw-C-Zja_c-3">
          <mxGeometry relative="1" as="geometry">
            <Array as="points">
              <mxPoint x="579" y="180" />
              <mxPoint x="139" y="180" />
            </Array>
          </mxGeometry>
        </mxCell>
        <mxCell id="GBdLteWlDEAw-C-Zja_c-15" style="edgeStyle=orthogonalEdgeStyle;rounded=0;orthogonalLoop=1;jettySize=auto;html=1;" edge="1" parent="1" source="GBdLteWlDEAw-C-Zja_c-2" target="GBdLteWlDEAw-C-Zja_c-4">
          <mxGeometry relative="1" as="geometry">
            <Array as="points">
              <mxPoint x="579" y="180" />
              <mxPoint x="289" y="180" />
            </Array>
          </mxGeometry>
        </mxCell>
        <mxCell id="GBdLteWlDEAw-C-Zja_c-16" style="edgeStyle=orthogonalEdgeStyle;rounded=0;orthogonalLoop=1;jettySize=auto;html=1;" edge="1" parent="1" source="GBdLteWlDEAw-C-Zja_c-2" target="GBdLteWlDEAw-C-Zja_c-5">
          <mxGeometry relative="1" as="geometry">
            <Array as="points">
              <mxPoint x="579" y="180" />
              <mxPoint x="439" y="180" />
            </Array>
          </mxGeometry>
        </mxCell>
        <mxCell id="GBdLteWlDEAw-C-Zja_c-17" style="edgeStyle=orthogonalEdgeStyle;rounded=0;orthogonalLoop=1;jettySize=auto;html=1;" edge="1" parent="1" source="GBdLteWlDEAw-C-Zja_c-2" target="GBdLteWlDEAw-C-Zja_c-6">
          <mxGeometry relative="1" as="geometry">
            <Array as="points">
              <mxPoint x="579" y="180" />
              <mxPoint x="589" y="180" />
            </Array>
          </mxGeometry>
        </mxCell>
        <mxCell id="GBdLteWlDEAw-C-Zja_c-18" style="edgeStyle=orthogonalEdgeStyle;rounded=0;orthogonalLoop=1;jettySize=auto;html=1;" edge="1" parent="1" source="GBdLteWlDEAw-C-Zja_c-2" target="GBdLteWlDEAw-C-Zja_c-7">
          <mxGeometry relative="1" as="geometry">
            <Array as="points">
              <mxPoint x="579" y="180" />
              <mxPoint x="739" y="180" />
            </Array>
          </mxGeometry>
        </mxCell>
        <mxCell id="GBdLteWlDEAw-C-Zja_c-19" style="edgeStyle=orthogonalEdgeStyle;rounded=0;orthogonalLoop=1;jettySize=auto;html=1;" edge="1" parent="1" source="GBdLteWlDEAw-C-Zja_c-2" target="GBdLteWlDEAw-C-Zja_c-8">
          <mxGeometry relative="1" as="geometry">
            <Array as="points">
              <mxPoint x="579" y="180" />
              <mxPoint x="889" y="180" />
            </Array>
          </mxGeometry>
        </mxCell>
        <mxCell id="GBdLteWlDEAw-C-Zja_c-2" value="Organizations &lt;br&gt;Management Account" style="sketch=0;outlineConnect=0;fontColor=#232F3E;gradientColor=none;fillColor=#B0084D;strokeColor=none;dashed=0;verticalLabelPosition=bottom;verticalAlign=top;align=center;html=1;fontSize=12;fontStyle=0;aspect=fixed;pointerEvents=1;shape=mxgraph.aws4.organizations_management_account2;" vertex="1" parent="1">
          <mxGeometry x="540" y="40" width="78" height="78" as="geometry" />
        </mxCell>
        <mxCell id="GBdLteWlDEAw-C-Zja_c-20" style="edgeStyle=orthogonalEdgeStyle;rounded=0;orthogonalLoop=1;jettySize=auto;html=1;" edge="1" parent="1" source="GBdLteWlDEAw-C-Zja_c-3" target="GBdLteWlDEAw-C-Zja_c-9">
          <mxGeometry relative="1" as="geometry">
            <Array as="points">
              <mxPoint x="139" y="370" />
              <mxPoint x="119" y="370" />
            </Array>
          </mxGeometry>
        </mxCell>
        <mxCell id="GBdLteWlDEAw-C-Zja_c-21" style="edgeStyle=orthogonalEdgeStyle;rounded=0;orthogonalLoop=1;jettySize=auto;html=1;" edge="1" parent="1" source="GBdLteWlDEAw-C-Zja_c-3" target="GBdLteWlDEAw-C-Zja_c-10">
          <mxGeometry relative="1" as="geometry">
            <Array as="points">
              <mxPoint x="139" y="370" />
              <mxPoint x="217" y="370" />
            </Array>
          </mxGeometry>
        </mxCell>
        <mxCell id="GBdLteWlDEAw-C-Zja_c-22" style="edgeStyle=orthogonalEdgeStyle;rounded=0;orthogonalLoop=1;jettySize=auto;html=1;" edge="1" parent="1" source="GBdLteWlDEAw-C-Zja_c-3" target="GBdLteWlDEAw-C-Zja_c-11">
          <mxGeometry relative="1" as="geometry">
            <Array as="points">
              <mxPoint x="139" y="370" />
              <mxPoint x="319" y="370" />
            </Array>
          </mxGeometry>
        </mxCell>
        <mxCell id="GBdLteWlDEAw-C-Zja_c-23" style="edgeStyle=orthogonalEdgeStyle;rounded=0;orthogonalLoop=1;jettySize=auto;html=1;" edge="1" parent="1" source="GBdLteWlDEAw-C-Zja_c-3" target="GBdLteWlDEAw-C-Zja_c-12">
          <mxGeometry relative="1" as="geometry">
            <Array as="points">
              <mxPoint x="139" y="370" />
              <mxPoint x="425" y="370" />
            </Array>
          </mxGeometry>
        </mxCell>
        <mxCell id="GBdLteWlDEAw-C-Zja_c-24" style="edgeStyle=orthogonalEdgeStyle;rounded=0;orthogonalLoop=1;jettySize=auto;html=1;" edge="1" parent="1" source="GBdLteWlDEAw-C-Zja_c-3" target="GBdLteWlDEAw-C-Zja_c-13">
          <mxGeometry relative="1" as="geometry">
            <Array as="points">
              <mxPoint x="139" y="370" />
              <mxPoint x="577" y="370" />
            </Array>
          </mxGeometry>
        </mxCell>
        <mxCell id="GBdLteWlDEAw-C-Zja_c-3" value="Team 1" style="sketch=0;outlineConnect=0;fontColor=#232F3E;gradientColor=none;fillColor=#B0084D;strokeColor=none;dashed=0;verticalLabelPosition=bottom;verticalAlign=top;align=center;html=1;fontSize=12;fontStyle=0;aspect=fixed;pointerEvents=1;shape=mxgraph.aws4.organizations_account2;" vertex="1" parent="1">
          <mxGeometry x="100" y="240" width="78" height="78" as="geometry" />
        </mxCell>
        <mxCell id="GBdLteWlDEAw-C-Zja_c-4" value="Team 2" style="sketch=0;outlineConnect=0;fontColor=#232F3E;gradientColor=none;fillColor=#B0084D;strokeColor=none;dashed=0;verticalLabelPosition=bottom;verticalAlign=top;align=center;html=1;fontSize=12;fontStyle=0;aspect=fixed;pointerEvents=1;shape=mxgraph.aws4.organizations_account2;" vertex="1" parent="1">
          <mxGeometry x="250" y="240" width="78" height="78" as="geometry" />
        </mxCell>
        <mxCell id="GBdLteWlDEAw-C-Zja_c-5" value="Team 3" style="sketch=0;outlineConnect=0;fontColor=#232F3E;gradientColor=none;fillColor=#B0084D;strokeColor=none;dashed=0;verticalLabelPosition=bottom;verticalAlign=top;align=center;html=1;fontSize=12;fontStyle=0;aspect=fixed;pointerEvents=1;shape=mxgraph.aws4.organizations_account2;" vertex="1" parent="1">
          <mxGeometry x="400" y="240" width="78" height="78" as="geometry" />
        </mxCell>
        <mxCell id="GBdLteWlDEAw-C-Zja_c-6" value="Team 4" style="sketch=0;outlineConnect=0;fontColor=#232F3E;gradientColor=none;fillColor=#B0084D;strokeColor=none;dashed=0;verticalLabelPosition=bottom;verticalAlign=top;align=center;html=1;fontSize=12;fontStyle=0;aspect=fixed;pointerEvents=1;shape=mxgraph.aws4.organizations_account2;" vertex="1" parent="1">
          <mxGeometry x="550" y="240" width="78" height="78" as="geometry" />
        </mxCell>
        <mxCell id="GBdLteWlDEAw-C-Zja_c-7" value="Team 5" style="sketch=0;outlineConnect=0;fontColor=#232F3E;gradientColor=none;fillColor=#B0084D;strokeColor=none;dashed=0;verticalLabelPosition=bottom;verticalAlign=top;align=center;html=1;fontSize=12;fontStyle=0;aspect=fixed;pointerEvents=1;shape=mxgraph.aws4.organizations_account2;" vertex="1" parent="1">
          <mxGeometry x="700" y="240" width="78" height="78" as="geometry" />
        </mxCell>
        <mxCell id="GBdLteWlDEAw-C-Zja_c-8" value="Team 6" style="sketch=0;outlineConnect=0;fontColor=#232F3E;gradientColor=none;fillColor=#B0084D;strokeColor=none;dashed=0;verticalLabelPosition=bottom;verticalAlign=top;align=center;html=1;fontSize=12;fontStyle=0;aspect=fixed;pointerEvents=1;shape=mxgraph.aws4.organizations_account2;" vertex="1" parent="1">
          <mxGeometry x="850" y="240" width="78" height="78" as="geometry" />
        </mxCell>
        <mxCell id="GBdLteWlDEAw-C-Zja_c-9" value="PROD" style="sketch=0;outlineConnect=0;fontColor=#232F3E;gradientColor=none;fillColor=#B0084D;strokeColor=none;dashed=0;verticalLabelPosition=bottom;verticalAlign=top;align=center;html=1;fontSize=12;fontStyle=0;aspect=fixed;pointerEvents=1;shape=mxgraph.aws4.organizations_account2;" vertex="1" parent="1">
          <mxGeometry x="80" y="455" width="78" height="78" as="geometry" />
        </mxCell>
        <mxCell id="GBdLteWlDEAw-C-Zja_c-10" value="Dev" style="sketch=0;outlineConnect=0;fontColor=#232F3E;gradientColor=none;fillColor=#B0084D;strokeColor=none;dashed=0;verticalLabelPosition=bottom;verticalAlign=top;align=center;html=1;fontSize=12;fontStyle=0;aspect=fixed;pointerEvents=1;shape=mxgraph.aws4.organizations_account2;" vertex="1" parent="1">
          <mxGeometry x="178" y="455" width="78" height="78" as="geometry" />
        </mxCell>
        <mxCell id="GBdLteWlDEAw-C-Zja_c-11" value="Sandbox" style="sketch=0;outlineConnect=0;fontColor=#232F3E;gradientColor=none;fillColor=#B0084D;strokeColor=none;dashed=0;verticalLabelPosition=bottom;verticalAlign=top;align=center;html=1;fontSize=12;fontStyle=0;aspect=fixed;pointerEvents=1;shape=mxgraph.aws4.organizations_account2;" vertex="1" parent="1">
          <mxGeometry x="280" y="455" width="78" height="78" as="geometry" />
        </mxCell>
        <mxCell id="GBdLteWlDEAw-C-Zja_c-12" value="Transversal" style="sketch=0;outlineConnect=0;fontColor=#232F3E;gradientColor=none;fillColor=#B0084D;strokeColor=none;dashed=0;verticalLabelPosition=bottom;verticalAlign=top;align=center;html=1;fontSize=12;fontStyle=0;aspect=fixed;pointerEvents=1;shape=mxgraph.aws4.organizations_account2;" vertex="1" parent="1">
          <mxGeometry x="386" y="455" width="78" height="78" as="geometry" />
        </mxCell>
        <mxCell id="GBdLteWlDEAw-C-Zja_c-13" value="UPC Team 1" style="sketch=0;outlineConnect=0;fontColor=#232F3E;gradientColor=none;fillColor=#B0084D;strokeColor=none;dashed=0;verticalLabelPosition=bottom;verticalAlign=top;align=center;html=1;fontSize=12;fontStyle=0;aspect=fixed;pointerEvents=1;shape=mxgraph.aws4.organizations_account;" vertex="1" parent="1">
          <mxGeometry x="540" y="465" width="74" height="78" as="geometry" />
        </mxCell>
      </root>
    </mxGraphModel>
  </diagram>
</mxfile>
